<svg width="212.598" height="82.032" viewBox="0 0 212.598 82.032" xmlns="http://www.w3.org/2000/svg"><g id="svgGroup" stroke-linecap="round" fill-rule="evenodd" font-size="9pt" stroke="#000" stroke-width="0.25mm" fill="#000" style="stroke:#000;stroke-width:0.25mm;fill:none"><path d="M 44.336 32.715 L 24.805 68.36 A 22.316 22.316 0 0 1 19.434 74.623 A 21.442 21.442 0 0 1 18.946 75 A 13.189 13.189 0 0 1 11.252 77.629 A 16.334 16.334 0 0 1 10.743 77.637 Q 6.055 77.637 3.028 73.389 A 15.868 15.868 0 0 1 0 63.965 A 3.348 3.348 0 0 1 2.444 65.069 Q 3.773 66.422 4.688 69.434 A 7.792 7.792 0 0 0 5.843 71.554 Q 6.443 72.348 7.276 73.096 A 6.561 6.561 0 0 0 10.551 74.662 A 9.206 9.206 0 0 0 12.207 74.805 A 10.308 10.308 0 0 0 15.59 73.345 Q 18.421 71.521 21.289 67.676 A 72.529 72.529 0 0 0 29.2 54.2 A 307.502 307.502 0 0 1 33.911 44.147 Q 38.628 34.575 42.606 28.611 A 52.994 52.994 0 0 1 45.996 24.024 A 119.77 119.77 0 0 1 51.428 17.303 Q 54.895 13.33 58.301 10.254 A 59.918 59.918 0 0 1 64.419 5.355 Q 72.175 0 78.809 0 A 7.671 7.671 0 0 1 81 0.297 A 5.732 5.732 0 0 1 83.936 2.295 Q 85.413 4.171 85.682 7.254 A 16.51 16.51 0 0 1 85.743 8.692 A 11.614 11.614 0 0 1 84.71 13.386 Q 84.03 14.939 82.9 16.498 A 21.262 21.262 0 0 1 82.569 16.944 Q 79.658 20.75 74.9 24.432 A 60.814 60.814 0 0 1 74.024 25.098 A 756.747 756.747 0 0 0 72.757 26.044 Q 68.859 28.963 68.235 29.524 A 1.874 1.874 0 0 0 68.164 29.59 Q 72.657 30.86 76.416 32.618 Q 80.176 34.375 81.348 35.205 Q 82.144 35.77 83.144 36.627 A 45.908 45.908 0 0 1 84.131 37.5 A 12.708 12.708 0 0 1 85.421 38.848 Q 86.054 39.622 86.469 40.421 A 7.831 7.831 0 0 1 86.524 40.528 Q 88.575 44.629 88.575 49.805 Q 88.575 54.981 83.985 62.403 A 45.958 45.958 0 0 1 72.364 75.098 A 32.85 32.85 0 0 1 67.717 78.046 Q 63.2 80.371 58.985 80.371 A 19.978 19.978 0 0 1 46.834 76.221 A 27.277 27.277 0 0 1 44.239 74.024 Q 37.598 67.676 37.598 59.668 L 37.696 56.446 A 3.622 3.622 0 0 1 39.91 55.403 A 4.959 4.959 0 0 1 40.479 55.371 A 3.909 3.909 0 0 1 41.456 55.486 A 2.503 2.503 0 0 1 42.969 56.543 A 1.271 1.271 0 0 1 43.099 56.791 A 0.936 0.936 0 0 1 43.164 57.129 A 0.961 0.961 0 0 1 42.975 57.668 Q 42.527 58.327 41.016 59.082 A 17.718 17.718 0 0 0 45.43 70.806 A 23.486 23.486 0 0 0 46.485 71.973 A 20.806 20.806 0 0 0 50.758 75.425 A 15.126 15.126 0 0 0 58.643 77.637 A 20.202 20.202 0 0 0 68.032 75.266 A 26.889 26.889 0 0 0 71.582 73.047 Q 77.832 68.457 81.787 61.67 A 36.467 36.467 0 0 0 84.037 57.166 Q 84.996 54.826 85.416 52.666 A 17.035 17.035 0 0 0 85.743 49.414 A 13.117 13.117 0 0 0 81.934 39.991 A 23.294 23.294 0 0 0 73.047 34.18 A 35.785 35.785 0 0 0 69.251 33.014 Q 67.313 32.541 65.571 32.393 A 18.332 18.332 0 0 0 64.014 32.325 A 72.723 72.723 0 0 0 58.274 32.544 A 64.094 64.094 0 0 0 56.446 32.715 A 184.933 184.933 0 0 1 54.498 32.917 Q 51.576 33.204 50.342 33.204 A 18.383 18.383 0 0 1 49.434 33.177 Q 48.107 33.11 45.824 32.875 A 183.963 183.963 0 0 1 44.336 32.715 Z M 147.559 73.633 L 148.633 73.633 A 6.385 6.385 0 0 1 146.215 78.711 A 10.097 10.097 0 0 1 144.825 79.688 A 16.301 16.301 0 0 1 137.412 81.899 A 19.648 19.648 0 0 1 136.231 81.934 A 10.753 10.753 0 0 1 128.351 78.607 A 14.004 14.004 0 0 1 128.028 78.272 A 17.368 17.368 0 0 1 124.219 71.708 A 22.077 22.077 0 0 1 123.535 69.043 Q 123.926 58.106 129.785 42.481 A 133.105 133.105 0 0 1 131.918 37.123 Q 135.193 29.426 137.813 26.765 A 4.94 4.94 0 0 1 139.649 25.489 Q 140.678 25.489 141.18 27.22 A 7.811 7.811 0 0 1 141.309 27.735 A 28.298 28.298 0 0 1 141.566 29.062 Q 141.682 29.75 141.739 30.346 A 11.467 11.467 0 0 1 141.797 31.446 A 30.854 30.854 0 0 1 141.434 35.997 Q 141.096 38.253 140.445 40.775 A 64.181 64.181 0 0 1 139.551 43.897 A 59.643 59.643 0 0 1 137.757 48.889 Q 136.765 51.285 135.654 53.256 A 28.976 28.976 0 0 1 134.278 55.469 Q 133.203 57.26 131.43 59.215 A 35.296 35.296 0 0 1 131.104 59.571 Q 129.102 61.719 128.076 63.526 A 7.407 7.407 0 0 0 127.309 65.555 Q 127.051 66.694 127.051 68.067 A 14.544 14.544 0 0 0 127.477 71.679 A 10.716 10.716 0 0 0 129.737 76.075 A 8.757 8.757 0 0 0 135.001 79.004 A 12.982 12.982 0 0 0 137.305 79.2 A 17.965 17.965 0 0 0 140.96 78.857 Q 145.943 77.819 147.559 73.633 Z M 170.313 73.633 L 171.387 73.633 A 6.385 6.385 0 0 1 168.969 78.711 A 10.097 10.097 0 0 1 167.578 79.688 A 16.301 16.301 0 0 1 160.166 81.899 A 19.648 19.648 0 0 1 158.985 81.934 A 10.753 10.753 0 0 1 151.105 78.607 A 14.004 14.004 0 0 1 150.782 78.272 A 17.368 17.368 0 0 1 146.973 71.708 A 22.077 22.077 0 0 1 146.289 69.043 Q 146.68 58.106 152.539 42.481 A 133.105 133.105 0 0 1 154.671 37.123 Q 157.947 29.426 160.566 26.765 A 4.94 4.94 0 0 1 162.403 25.489 Q 163.432 25.489 163.934 27.22 A 7.811 7.811 0 0 1 164.063 27.735 A 28.298 28.298 0 0 1 164.32 29.062 Q 164.436 29.75 164.493 30.346 A 11.467 11.467 0 0 1 164.551 31.446 A 30.854 30.854 0 0 1 164.188 35.997 Q 163.85 38.253 163.199 40.775 A 64.181 64.181 0 0 1 162.305 43.897 A 59.643 59.643 0 0 1 160.511 48.889 Q 159.519 51.285 158.408 53.256 A 28.976 28.976 0 0 1 157.032 55.469 Q 155.957 57.26 154.184 59.215 A 35.296 35.296 0 0 1 153.858 59.571 Q 151.856 61.719 150.83 63.526 A 7.407 7.407 0 0 0 150.063 65.555 Q 149.805 66.694 149.805 68.067 A 14.544 14.544 0 0 0 150.231 71.679 A 10.716 10.716 0 0 0 152.491 76.075 A 8.757 8.757 0 0 0 157.755 79.004 A 12.982 12.982 0 0 0 160.059 79.2 A 17.965 17.965 0 0 0 163.713 78.857 Q 168.697 77.819 170.313 73.633 Z M 91.225 69.057 A 16.157 16.157 0 0 0 91.309 70.118 A 31.862 31.862 0 0 0 92.754 73.59 Q 93.632 75.371 94.643 76.732 A 12.438 12.438 0 0 0 97.266 79.395 A 15.588 15.588 0 0 0 99.318 80.67 A 11.713 11.713 0 0 0 104.737 82.032 A 9.548 9.548 0 0 0 105.122 82.024 Q 107.699 81.92 111.006 80.438 A 34.374 34.374 0 0 0 114.16 78.809 Q 118.164 76.368 121.094 72.901 A 30.293 30.293 0 0 0 122.302 71.379 Q 123.228 70.129 123.885 68.939 A 14.423 14.423 0 0 0 125 66.407 Q 125 65.88 124.874 65.493 A 1.431 1.431 0 0 0 124.024 64.551 A 6.07 6.07 0 0 0 123.846 64.695 Q 123.399 65.071 123.179 65.416 A 1.391 1.391 0 0 0 122.998 65.821 A 1.857 1.857 0 0 1 122.906 66.091 Q 122.754 66.45 122.422 66.919 A 9.994 9.994 0 0 1 122.071 67.383 Q 118.659 71.123 115.798 73.408 A 25.648 25.648 0 0 1 113.135 75.293 A 13.54 13.54 0 0 1 110.661 76.46 Q 107.373 77.637 102.735 77.637 A 9.987 9.987 0 0 1 100.878 77.464 A 10.836 10.836 0 0 1 97.461 76.172 A 6.397 6.397 0 0 1 96.527 75.522 A 4.32 4.32 0 0 1 94.922 72.071 A 0.294 0.294 0 0 1 94.922 72.061 Q 94.926 71.94 95.02 71.192 A 19.234 19.234 0 0 1 95.201 71.013 Q 95.866 70.367 97.998 68.36 Q 99.71 66.748 100.892 65.553 A 49.5 49.5 0 0 0 101.856 64.551 A 40.274 40.274 0 0 0 101.993 64.403 Q 102.969 63.347 104.209 61.86 A 116.59 116.59 0 0 0 105.127 60.743 Q 107.032 58.399 107.959 56.104 Q 108.514 54.732 108.737 53.57 A 7.818 7.818 0 0 0 108.887 52.1 Q 108.887 51.112 108.626 50.45 A 2.144 2.144 0 0 0 108.106 49.659 A 2.606 2.606 0 0 0 106.964 49.036 A 3.578 3.578 0 0 0 106.055 48.926 A 11.178 11.178 0 0 0 98.151 52.101 A 17.289 17.289 0 0 0 95.362 55.567 A 36.538 36.538 0 0 0 95.138 55.93 Q 93.482 58.649 92.524 61.303 A 20.991 20.991 0 0 0 91.211 68.457 A 13.41 13.41 0 0 0 91.225 69.057 Z M 212.11 72.364 L 212.598 72.364 A 15.252 15.252 0 0 1 212.123 75.088 Q 211.215 78.353 208.838 79.737 A 12.363 12.363 0 0 1 205.802 80.965 Q 204.381 81.345 202.692 81.512 A 28.517 28.517 0 0 1 199.903 81.641 Q 188.844 81.641 187.002 73.225 A 15.45 15.45 0 0 1 186.719 71.387 A 5.594 5.594 0 0 1 186.075 73.055 Q 185.247 74.53 183.455 76.236 A 28.743 28.743 0 0 1 182.276 77.295 Q 178.321 80.664 175.196 80.664 L 174.707 80.664 A 11.02 11.02 0 0 1 171.988 79.549 Q 168.978 77.763 168.684 74.224 A 9.5 9.5 0 0 1 168.653 73.438 A 15.056 15.056 0 0 1 170.652 66.089 Q 171.914 63.803 173.972 61.558 A 34.12 34.12 0 0 1 176.172 59.375 A 26.81 26.81 0 0 1 179.803 56.545 Q 181.91 55.195 183.979 54.563 A 12.324 12.324 0 0 1 187.598 54.004 A 10.652 10.652 0 0 1 191.132 54.577 A 9.669 9.669 0 0 1 193.164 55.567 Q 190.332 62.793 190.332 69.043 Q 190.332 79.391 201.553 79.395 A 16.089 16.089 0 0 0 201.563 79.395 A 22.659 22.659 0 0 0 203.12 79.129 Q 204.815 78.772 205.811 78.223 Q 206.802 77.676 207.912 76.58 A 19.172 19.172 0 0 0 208.887 75.538 Q 210.547 73.633 212.11 72.364 Z M 64.356 8.399 L 61.133 11.621 A 705.712 705.712 0 0 0 57.508 15.274 A 806.201 806.201 0 0 0 56.25 16.553 A 5620.03 5620.03 0 0 1 55.651 17.164 Q 53.802 19.048 53.458 19.394 A 17.884 17.884 0 0 1 53.418 19.434 A 47.204 47.204 0 0 0 50.956 22.62 Q 48.694 25.797 46.192 30.176 A 68.825 68.825 0 0 0 49.524 30.085 Q 55.127 29.81 64.356 28.711 Q 81.709 16.858 83.777 8.043 A 11.203 11.203 0 0 0 83.887 7.52 Q 83.887 5.388 82.967 4.028 A 4.456 4.456 0 0 0 82.373 3.321 Q 80.877 1.873 78.283 1.856 A 9.426 9.426 0 0 0 78.223 1.856 Q 73.685 1.856 66.916 6.527 A 60.816 60.816 0 0 0 64.356 8.399 Z M 139.258 32.032 Q 138.477 32.911 136.67 36.133 A 99.264 99.264 0 0 0 136.046 37.263 Q 134.809 39.539 134.571 40.332 A 1143.638 1143.638 0 0 0 133.037 44.359 Q 128.141 57.292 128.03 58.729 A 0.791 0.791 0 0 0 128.028 58.789 Q 131.501 56.391 134.555 49.544 A 58.774 58.774 0 0 0 135.645 46.924 A 74.941 74.941 0 0 0 137.508 41.588 Q 139.191 36.06 139.258 32.032 Z M 162.012 32.032 Q 161.231 32.911 159.424 36.133 A 99.264 99.264 0 0 0 158.8 37.263 Q 157.563 39.539 157.325 40.332 A 1143.638 1143.638 0 0 0 155.791 44.359 Q 150.895 57.292 150.784 58.729 A 0.791 0.791 0 0 0 150.782 58.789 Q 154.255 56.391 157.309 49.544 A 58.774 58.774 0 0 0 158.399 46.924 A 74.941 74.941 0 0 0 160.262 41.588 Q 161.945 36.06 162.012 32.032 Z M 171.68 72.95 A 27.361 27.361 0 0 0 171.694 73.864 Q 171.724 74.74 171.813 75.354 A 7.559 7.559 0 0 0 171.826 75.44 A 2.679 2.679 0 0 0 172.295 76.568 A 3.78 3.78 0 0 0 172.803 77.149 A 2.673 2.673 0 0 0 173.854 77.747 Q 174.439 77.93 175.196 77.93 A 6.77 6.77 0 0 0 178.425 76.87 Q 180.645 75.517 182.877 72.446 A 32.431 32.431 0 0 0 183.838 71.045 A 43.358 43.358 0 0 0 186.061 67.241 Q 188.271 62.935 188.477 59.571 Q 186.914 57.618 184.18 57.618 Q 180.797 57.618 177.142 61.778 A 24.983 24.983 0 0 0 176.856 62.11 Q 173.047 66.602 171.68 72.95 Z M 99.336 55.994 A 18.381 18.381 0 0 0 98.438 57.032 Q 95.887 60.202 95.137 63.179 A 9.983 9.983 0 0 0 94.825 65.625 Q 94.825 66.677 94.94 67.267 A 2.539 2.539 0 0 0 95.02 67.579 A 17.907 17.907 0 0 0 97.873 65.628 Q 99.137 64.586 100.425 63.217 A 39.826 39.826 0 0 0 102.442 60.889 A 25.892 25.892 0 0 0 104.283 58.314 Q 106.25 55.137 106.25 52.539 Q 102.568 52.539 99.336 55.994 Z" vector-effect="non-scaling-stroke"/></g></svg>
